<?xml version="1.0"?>
<svg width="32" height="32" xmlns="http://www.w3.org/2000/svg" xmlns:svg="http://www.w3.org/2000/svg" xmlns:xlink="http://www.w3.org/1999/xlink" version="1.1">
 <title>Slice</title>
 <defs>
  <symbol height="545" id="svg_2" version="1.1" width="539" xmlns="http://www.w3.org/2000/svg">
   <path d="m0,0c43.23,0 86.46,0 131,0c0,132.66 0,265.32 0,402c-29.04,0 -58.08,0 -88,0c0,-103.62 0,-207.24 0,-314c-14.19,0 -28.38,0 -43,0c0,-29.04 0,-58.08 0,-88z" fill="#FFFFFF" transform="translate(386,15)"/>
   <path d="m0,0c43.23,0 86.46,0 131,0c0,29.04 0,58.08 0,88c-14.19,0 -28.38,0 -43,0c0,103.62 0,207.24 0,314c-29.04,0 -58.08,0 -88,0c0,-132.66 0,-265.32 0,-402z" fill="#FFFFFF" transform="translate(23,15)"/>
   <path d="m0,0c81.51,0 163.02,0 247,0c0,16.83 0,33.66 0,51c-23.76,0 -47.52,0 -72,0c0,68.97 0,137.94 0,209c-13.53,0 -27.06,0 -41,0c0,-32.34 0,-64.68 0,-98c-6.93,0 -13.86,0 -21,0c0,32.34 0,64.68 0,98c-13.53,0 -27.06,0 -41,0c0,-68.97 0,-137.94 0,-209c-23.76,0 -47.52,0 -72,0c0,-16.83 0,-33.66 0,-51z" fill="#FFFFFF" transform="translate(149,266)"/>
   <path d="m0,0c28.71,0 57.42,0 87,0c0,29.04 0,58.08 0,88c-28.71,0 -57.42,0 -87,0c0,-29.04 0,-58.08 0,-88z" fill="#FFFFFF" transform="translate(23,438)"/>
   <path d="m0,0c28.71,0 57.42,0 87,0c0,29.04 0,58.08 0,88c-28.71,0 -57.42,0 -87,0c0,-29.04 0,-58.08 0,-88z" fill="#FFFFFF" transform="translate(280,15)"/>
   <path d="m0,0c28.71,0 57.42,0 87,0c0,29.04 0,58.08 0,88c-28.71,0 -57.42,0 -87,0c0,-29.04 0,-58.08 0,-88z" fill="#FFFFFF" transform="translate(174,15)"/>
   <path d="m0,0c28.38,0 56.76,0 86,0c0,29.04 0,58.08 0,88c-28.38,0 -56.76,0 -86,0c0,-29.04 0,-58.08 0,-88z" fill="#FFFFFF" transform="translate(431,438)"/>
   <path d="m0,0c0.83,0.66 1.65,1.32 2.5,2c0.83,0.56 1.65,1.11 2.5,1.69c7.35,6.8 11.75,16.07 12.77,25.97c0.4,11.05 -3.08,20.88 -10.26,29.34c-8.58,8.54 -17.42,12.02 -29.39,12.5c-11.25,-0.28 -19.37,-4.27 -27.42,-12.03c-8.94,-10.05 -11.09,-20.38 -10.4,-33.46c0.9,-9.24 6.82,-17.06 13.45,-23.2c13.3,-10.84 31.56,-12.3 46.25,-2.81z" fill="#FFFFFF" transform="translate(295.5,175)"/>
  </symbol>
 </defs>
 <g class="layer">
  <title>Layer 1</title>
  <use id="svg_3" transform="matrix(0.0367275 0 0 0.0367275 0.876547 0.876547)" x="142.27" xlink:href="#svg_2" y="139.27"/>
 </g>
</svg>